<svg xmlns="http://www.w3.org/2000/svg" viewBox="0 0 94 81"><defs><style>.cls-1{fill:#0a1b2a;fill-rule:evenodd;opacity:0.06;isolation:isolate;}.cls-2{fill:none;stroke:#f37521;stroke-linecap:round;stroke-linejoin:round;stroke-width:2.29px;}</style></defs><g id="Layer_2" data-name="Layer 2"><g id="Benefits"><g id="Group-10"><g id="Icon-Circle-DevOpsSec"><path id="Rectangle" class="cls-1" d="M35,6.5h0a34,34,0,0,1,34,34h0a34,34,0,0,1-34,34h0a34,34,0,0,1-34-34H1A34,34,0,0,1,35,6.5Z"/></g></g></g></g><g id="Layer_1" data-name="Layer 1"><path class="cls-2" d="M69,46.12c0,6.76-6.56,12.57-16,15.17-9.41-2.6-16-8.41-16-15.17V25.9Q53,15.37,69,25.9Z"/><rect class="cls-2" x="47.22" y="40.96" width="11.61" height="8.71" rx="1.45"/><path class="cls-2" d="M48.67,41V36.61A4.37,4.37,0,0,1,53,32.25h0a4.37,4.37,0,0,1,4.36,4.36V41"/></g></svg>