<svg xmlns="http://www.w3.org/2000/svg" viewBox="0 0 94 81"><defs><style>.cls-1{fill:#0a1b2a;fill-rule:evenodd;opacity:0.06;isolation:isolate;}.cls-2,.cls-3,.cls-4,.cls-5{fill:none;stroke:#f37521;}.cls-2,.cls-3{stroke-linecap:round;}.cls-2,.cls-3,.cls-5{stroke-linejoin:round;}.cls-2{stroke-width:2.05px;}.cls-3{stroke-width:1.14px;}.cls-4{stroke-miterlimit:10;}.cls-4,.cls-5{stroke-width:1.52px;}</style></defs><g id="Layer_2" data-name="Layer 2"><g id="Benefits"><g id="Group-10"><g id="Icon-Circle-DevOpsSec"><path id="Rectangle" class="cls-1" d="M35,6.5h0a34,34,0,0,1,34,34h0a34,34,0,0,1-34,34h0a34,34,0,0,1-34-34H1A34,34,0,0,1,35,6.5Z"/></g></g></g></g><g id="Layer_1" data-name="Layer 1"><rect class="cls-2" x="33.87" y="48.26" width="5.21" height="7.82" rx="0.69"/><rect class="cls-2" x="44.29" y="43.05" width="5.21" height="13.03" rx="0.64"/><rect class="cls-2" x="54.71" y="35.24" width="5.21" height="20.84" rx="0.67"/><path class="cls-2" d="M69.69,56.08h-3.9a.68.68,0,0,1-.66-.68V22.88a.67.67,0,0,1,.66-.67h3.9a.66.66,0,0,1,.65.67V55.4A.66.66,0,0,1,69.69,56.08Z"/><line class="cls-3" x1="31.92" y1="60.64" x2="72.3" y2="60.64"/><circle class="cls-4" cx="40.38" cy="28.18" r="1.67"/><path class="cls-5" d="M47.7,26.92H46a5.69,5.69,0,0,0-.76-1.85l1.17-1.17a.51.51,0,0,0,0-.71l-1.07-1.07a.51.51,0,0,0-.72,0l-1.17,1.17a5.62,5.62,0,0,0-1.85-.77V20.87a.5.5,0,0,0-.5-.51H39.63a.51.51,0,0,0-.51.51v1.65a5.81,5.81,0,0,0-1.85.77l-1.16-1.17a.51.51,0,0,0-.72,0l-1.07,1.07a.51.51,0,0,0,0,.71l1.17,1.17a5.94,5.94,0,0,0-.77,1.85H33.07a.5.5,0,0,0-.5.5v1.52a.5.5,0,0,0,.5.5h1.65a5.94,5.94,0,0,0,.77,1.85l-1.17,1.17a.51.51,0,0,0,0,.71l1.07,1.07a.51.51,0,0,0,.72,0l1.16-1.17a5.81,5.81,0,0,0,1.85.77v1.65a.51.51,0,0,0,.51.51h1.51a.5.5,0,0,0,.5-.51V33.84a5.62,5.62,0,0,0,1.85-.77l1.17,1.17a.51.51,0,0,0,.72,0l1.07-1.07a.51.51,0,0,0,0-.71l-1.17-1.17A5.69,5.69,0,0,0,46,29.44H47.7a.51.51,0,0,0,.5-.5V27.42A.51.51,0,0,0,47.7,26.92Z"/></g></svg>