<svg xmlns="http://www.w3.org/2000/svg" viewBox="0 0 94 81"><defs><style>.cls-1{fill:#0a1b2a;fill-rule:evenodd;opacity:0.06;isolation:isolate;}.cls-2,.cls-3{fill:none;stroke:#f37521;stroke-linecap:round;}.cls-2{stroke-miterlimit:10;stroke-width:1.43px;}.cls-3{stroke-linejoin:round;stroke-width:2.49px;}</style></defs><g id="Layer_2" data-name="Layer 2"><g id="Benefits"><g id="Group-10"><g id="Icon-Circle-DevOpsSec"><path id="Rectangle" class="cls-1" d="M35,6.5h0a34,34,0,0,1,34,34h0a34,34,0,0,1-34,34h0a34,34,0,0,1-34-34H1A34,34,0,0,1,35,6.5Z"/></g></g></g></g><g id="Layer_1" data-name="Layer 1"><path class="cls-2" d="M67.47,27.44l3.62,2.23a.5.5,0,0,1,0,.85l-3.62,2.23a.45.45,0,0,1-.68-.43V27.87A.45.45,0,0,1,67.47,27.44Z"/><path class="cls-2" d="M67.47,40.13l3.62,2.23a.5.5,0,0,1,0,.85l-3.62,2.23a.45.45,0,0,1-.68-.42V40.56A.46.46,0,0,1,67.47,40.13Z"/><path class="cls-2" d="M44.12,42.79h3.2a2.58,2.58,0,0,0,1.78-.72L60.9,30.81a2.58,2.58,0,0,1,1.78-.72h4.11"/><path class="cls-2" d="M56.47,37.85l1.46,1.41,1.47,1.4,1.47,1.41.19.16c.06.06.13.1.19.15l.22.12.22.1.23.08.24.06.24,0h4.39"/><path class="cls-2" d="M44.12,30.09h3.23l.25,0a2,2,0,0,1,.24,0l.24.06.23.08.22.1.22.12.2.15.18.16,1.47,1.41,1.47,1.4L53.53,35"/><rect class="cls-3" x="33.65" y="21.73" width="47.45" height="31.64" rx="3.16"/><line class="cls-3" x1="44.72" y1="59.69" x2="70.03" y2="59.69"/></g></svg>