<svg xmlns="http://www.w3.org/2000/svg" viewBox="0 0 94 81"><defs><style>.cls-1{fill:#0a1b2a;fill-rule:evenodd;opacity:0.06;isolation:isolate;}.cls-2{fill:#f37521;}.cls-3{fill:none;stroke:#f37521;stroke-linecap:round;stroke-linejoin:round;stroke-width:1.19px;}</style></defs><g id="Layer_2" data-name="Layer 2"><g id="Benefits"><g id="Group-10"><g id="Icon-Circle-DevOpsSec"><path id="Rectangle" class="cls-1" d="M35,6.5h0a34,34,0,0,1,34,34h0a34,34,0,0,1-34,34h0a34,34,0,0,1-34-34H1A34,34,0,0,1,35,6.5Z"/></g></g></g></g><g id="Layer_1" data-name="Layer 1"><path class="cls-2" d="M69.24,51.07l-2.83-4.53V29a2.68,2.68,0,0,0-2.67-2.67H37A2.68,2.68,0,0,0,34.37,29V46.54l-2.83,4.53a.89.89,0,0,0-.14.47v.6a3.26,3.26,0,0,0,3.26,3.26H66.12a3.26,3.26,0,0,0,3.26-3.26v-.6A.89.89,0,0,0,69.24,51.07ZM36.15,29A.89.89,0,0,1,37,28.1H48.79l.12.6h3l.12-.6H63.74a.89.89,0,0,1,.89.89V46.2H36.15Zm-.21,18.4h28.9l2.41,3.86H55.09l-.25-1.49h-8.9l-.25,1.49H33.53ZM67.6,52.14a1.48,1.48,0,0,1-1.48,1.48H34.66a1.48,1.48,0,0,1-1.48-1.48v-.3H67.6Z"/><path class="cls-2" d="M37.63,45H63.15V29.59H37.63Zm.6-14.84H62.55V44.42H38.23Z"/><path class="cls-2" d="M50.74,34.6,55,42l.8-3,2.44,1.83a.46.46,0,0,0,.27.09.44.44,0,0,0,.36-.18.46.46,0,0,0-.09-.62l-2.42-1.81,2.72-1.57Z"/><path class="cls-3" d="M64.61,19a9.55,9.55,0,0,1,9.54,9.54"/><path class="cls-3" d="M64.61,21.73a6.81,6.81,0,0,1,6.81,6.81"/><path class="cls-3" d="M64.61,24.45a4.09,4.09,0,0,1,4.09,4.09"/></g></svg>